<?xml version="1.0" encoding="iso-8859-1"?>
<!-- Generator: Adobe Illustrator 19.0.0, SVG Export Plug-In . SVG Version: 6.00 Build 0)  -->
<svg version="1.1" id="Capa_1" xmlns="http://www.w3.org/2000/svg" xmlns:xlink="http://www.w3.org/1999/xlink" x="0px" y="0px"
	 viewBox="0 0 512.001 512.001" style="enable-background:new 0 0 512.001 512.001;" xml:space="preserve">
<path style="fill:#A45E43;" d="M258.919,195.362H157.441v-15.223h101.479c12.591,0,22.834-10.243,22.834-22.835V116.71h15.223
	v40.595C296.977,178.29,279.905,195.362,258.919,195.362z"/>
<g>
	<path style="fill:#C27749;" d="M157.442,195.362H55.964c-20.985,0-38.057-17.072-38.057-38.057V116.71H33.13v40.595
		c0,12.591,10.243,22.835,22.834,22.835h101.477V195.362z"/>
	<path style="fill:#C27749;" d="M119.384,289.235v199.517l-25.242,8.414c-3.988,1.329-6.143,5.64-4.815,9.628
		c1.329,3.988,5.642,6.144,9.628,4.815l30.446-10.149c3.19-1.064,5.201-4.034,5.201-7.221c0.004,0,0.004-0.135,0.004-0.135
		c0-0.024,0-204.868,0-204.868h-15.223V289.235z"/>
</g>
<path style="fill:#2DADE3;" d="M456.047,50.743h-30.446V458.72l30.446-30.446c16.745,0,30.446-13.701,30.446-30.446V81.189
	C486.493,64.444,472.792,50.743,456.047,50.743z"/>
<path style="fill:#49C9FF;" d="M456.047,397.828V81.189c0-16.745-13.701-30.446-30.446-30.446h-45.669
	c-16.745,0-30.446,13.701-30.446,30.446v316.638c0,16.745,13.701,30.446,30.446,30.446l45.669,30.446v-30.446
	C442.346,428.274,456.047,414.573,456.047,397.828z"/>
<polygon style="fill:#353535;" points="501.715,473.943 501.715,504.389 471.269,504.389 440.823,443.497 "/>
<g>
	<polygon style="fill:#4F4F4F;" points="471.269,443.497 471.269,504.389 334.262,504.389 334.262,473.943 	"/>
	<path style="fill:#4F4F4F;" d="M486.492,428.274h-30.446l15.223,45.669h30.446v-30.446
		C501.715,435.124,494.864,428.274,486.492,428.274z"/>
</g>
<path style="fill:#696969;" d="M471.269,443.497v30.446H334.262v-30.446c0-8.373,6.85-15.223,15.223-15.223h106.561
	C464.418,428.274,471.269,435.124,471.269,443.497z"/>
<path style="fill:#A45E43;" d="M321.446,384.514l-25.242-8.414v-79.251c0-4.204-3.408-7.611-7.612-7.611H157.442v15.223h123.541
	v76.967c0,0.024,0,0.158,0,0.158c0.004,3.187,2.014,6.157,5.204,7.221l30.446,10.149c0.799,0.266,1.61,0.393,2.408,0.393
	c3.187,0,6.156-2.018,7.22-5.206C327.59,390.153,325.435,385.843,321.446,384.514z"/>
<path style="fill:#FF4128;" d="M157.442,334.906c25.222,0,45.669-20.447,45.669-45.669l-45.669-30.446V334.906z"/>
<path style="fill:#353535;" d="M182.813,167.453h-30.446l20.297,121.784h30.446V187.75
	C203.111,176.54,194.024,167.453,182.813,167.453z"/>
<path style="fill:#FF6337;" d="M111.773,289.237c0,25.222,20.447,45.669,45.669,45.669c8.407,0,15.223-20.447,15.223-45.669
	l-15.223-30.446L111.773,289.237z"/>
<path style="fill:#4F4F4F;" d="M172.665,187.75c0-11.21-9.087-20.297-20.297-20.297H132.07c-11.21,0-20.297,9.087-20.297,20.297
	v101.487h60.892V187.75z"/>
<circle style="fill:#60312C;" cx="157.437" cy="22.834" r="22.834"/>
<path style="fill:#A45E43;" d="M192.206,61.739c0.01-0.01-34.764-0.005-34.764-0.005v75.273c25.219,0,45.669-20.45,45.669-45.669
	C203.111,80.053,199.006,69.706,192.206,61.739z"/>
<path style="fill:#C27749;" d="M171.538,74.095l-48.861-12.356c-6.8,7.967-10.905,18.313-10.905,29.599
	c0,25.219,20.45,45.669,45.669,45.669c8.403,0,15.223-20.45,15.223-45.669C172.665,85.239,172.269,79.413,171.538,74.095z"/>
<path style="fill:#40211D;" d="M157.442,45.669l14.096,28.426c7.561-2.263,14.69-6.389,20.668-12.356
	C183.833,51.905,171.366,45.669,157.442,45.669z"/>
<path style="fill:#60312C;" d="M157.442,45.669c-13.924,0-26.392,6.236-34.764,16.07c13.234,13.234,32.115,17.359,48.861,12.356
	C169.275,57.421,163.815,45.669,157.442,45.669z"/>
<path style="fill:#FF4128;" d="M304.597,76.115v30.446l-49.568-7.647c-0.749-2.395-1.175-4.934-1.175-7.577V76.115
	c0-14.012,11.359-25.372,25.372-25.372C293.238,50.744,304.597,62.103,304.597,76.115z"/>
<path style="fill:#FF6337;" d="M279.226,81.19c14.012,0,25.372,11.359,25.372,25.372v40.595h-30.446v-30.954
	c-9.087-1.845-16.39-8.555-19.122-17.287C258.273,88.639,267.878,81.19,279.226,81.19z"/>
<path style="fill:#FF4128;" d="M10.286,76.115v30.446l49.568-7.647c0.749-2.395,1.175-4.934,1.175-7.577V76.115
	c0-14.012-11.359-25.372-25.372-25.372C21.646,50.744,10.286,62.103,10.286,76.115z"/>
<path style="fill:#FF6337;" d="M35.658,81.19c-14.012,0-25.372,11.359-25.372,25.372v40.595h30.446v-30.954
	c9.087-1.845,16.39-8.555,19.122-17.287C56.611,88.639,47.005,81.19,35.658,81.19z"/>
<polygon style="fill:#FFF0D3;" points="425.601,111.635 395.155,134.47 425.601,157.304 456.047,157.304 456.047,111.635 "/>
<rect x="379.936" y="111.635" style="fill:#FFFFFF;" width="45.669" height="45.669"/>
<g>
</g>
<g>
</g>
<g>
</g>
<g>
</g>
<g>
</g>
<g>
</g>
<g>
</g>
<g>
</g>
<g>
</g>
<g>
</g>
<g>
</g>
<g>
</g>
<g>
</g>
<g>
</g>
<g>
</g>
</svg>
