<svg id="Capa_1" enable-background="new 0 0 512 512" height="512" viewBox="0 0 512 512" width="512" xmlns="http://www.w3.org/2000/svg"><g><circle cx="494.523" cy="406.073" fill="#fcb143" r="17.477"/><g><g><g><path d="m55.552 285.349c-31.663 5.528-55.552 32.087-55.552 63.733v9.662c0 35.446 29.963 64.534 67.26 64.805.274.002.548.003.822.003.275 0 .549-.001.823-.003 37.298-.271 67.26-29.359 67.26-64.805v-9.662c0-.119 0-.238-.001-.357-.099-17.357-10.676-32.947-26.592-39.872z" fill="#7fd061"/><g fill="#51be26"><path d="m136.165 348.725c-.099-17.357-10.676-32.947-26.592-39.872l-14.443-6.284.41 56.174c0 28.996-20.056 53.727-47.77 61.919 6.165 1.822 12.704 2.836 19.49 2.886.274.002.548.003.822.003.275 0 .549-.001.823-.003 37.298-.271 67.26-29.359 67.26-64.805v-9.662c.001-.119.001-.237 0-.356z"/><path d="m71.038 376.724c-20.618 0-51.105-3.538-69.319-11.305-.46-.197-.928-.341-1.4-.443.635 6.327 2.233 12.393 4.642 18.069 22.489 7.114 51.159 9.132 66.076 9.132 16.579 0 40.144-2.253 59.31-7.214 2.537-5.461 4.305-11.31 5.178-17.427-.589.05-1.182.16-1.768.353-18.601 6.103-44.904 8.835-62.719 8.835z"/><path d="m71.038 326.572c-19.001 0-45.543-3.647-61.473-10.629-2.727 4.364-4.93 9.055-6.532 13.996 13.882 6.045 39.864 12.086 68.005 12.086 15.373 0 40.296-2.343 59.947-8.948.642-.216 1.23-.515 1.771-.869-2.057-4.866-4.987-9.326-8.63-13.164-16.538 5.188-38.338 7.528-53.088 7.528z"/></g><path d="m133.758 367.889c-11.799 3.871-26.692 6.381-40.556 7.703-1.606 5.695-4.001 11.085-7.076 16.054 14.169-.925 30.344-3.091 44.223-6.683 2.536-5.461 4.305-11.31 5.178-17.427-.59.05-1.183.161-1.769.353z" fill="#49a61f"/><path d="m124.125 319.044c-8.747 2.744-18.962 4.684-28.832 5.91l.114 15.571c11.766-1.359 24.508-3.727 35.577-7.447.642-.216 1.23-.515 1.771-.869-2.057-4.867-4.986-9.327-8.63-13.165z" fill="#49a61f"/></g><g><g><g><g><g><g><g><g><path d="m45.957 264.437-1.154-.236c-3.301-.675-6.201-2.662-7.965-5.533-3.297-5.365-5.914-11.267-8.375-16.997l-9.719-22.632c-1.616-3.762-5.411-6.113-9.499-5.882-5.074.286-9.164 4.414-9.244 9.46l.126 54.054c-.012 5.087 3.468 9.465 8.464 10.428l28.309 3.715 5.334-3.987 6.016-17.519z" fill="#69d8e4"/></g><g><g><g><g><g><path d="m421.377 381.369s-7.851-16.105-19.824-25.408c0 0-32.979-36.798-95.057-36.798l-59.204-.556-15.105 6.126-9.85 40.817 11.641 11.399 52.42 18.062 36.418 28.541 116.656-.043-18.052-42.126z" fill="#fb74c4"/></g></g></g></g><g><g><path d="m121.002 325.225-84.103-34.411 9.058-26.376 96.281 18.538c9.874 1.776 19.586 4.356 29.038 7.716l76.017 27.915-15.105 6.126-9.85 40.817 11.641 11.399s-35.926-7.784-35.926-7.784c-12.663-12.213-60.674-37.512-77.051-43.94z" fill="#057195"/></g></g></g></g></g></g></g><g><g><path d="m200.313 123.608-.405-1.924c-.703-3.339-.029-6.837 1.93-9.632 3.602-5.138 7.959-9.87 12.22-14.392l16.894-17.924c2.808-2.98 3.454-7.397 1.615-11.056-2.282-4.54-7.646-6.534-12.307-4.599l-49.638 21.398c-4.672 2.014-7.253 7.065-6.147 12.031l7.7 27.29 5.601 3.17 17.204-.729z" fill="#69d8e4"/></g><g><g><path d="m186.606 229.669-14.43-104.869 28.138-1.193 29.115 85.851c3.069 9.551 5.352 19.337 6.824 29.261l11.04 79.887c-7.659 14.489-12.023 30.491-12.782 46.863l-.532 11.479c-36.382 5.307-66.76-27.554-58.616-63.408l10.766-47.401c1.983-12.064 2.143-24.358.477-36.47z" fill="#0e80ac"/></g></g></g><g><g><path d="m449.886 422.94c23.78-1.237 42.054-21.517 40.817-45.296-1.237-23.78-21.517-42.054-45.296-40.817l-10.596.551c-23.78 1.237-42.054 21.517-40.817 45.296 1.237 23.78 21.517 42.054 45.296 40.817z" fill="#fff0dc"/><path d="m490.703 377.644c-1.161-22.327-19.111-39.799-40.982-40.826l.886 48.037c.284 15.089-9.33 30.031-21.039 38.037 3.145.552 6.398.773 9.722.6l10.596-.551c23.779-1.237 42.054-21.517 40.817-45.297z" fill="#ffe4c0"/><path d="m490.703 377.644c-1.029-19.788-15.248-35.751-33.693-39.845l1.695 32.586c.41 7.887-5.651 14.614-13.538 15.024-3.478.181-6.77 1.625-9.259 4.06l-25.44 24.895c7.908 6.201 17.999 9.69 28.823 9.127l10.596-.551c23.778-1.236 42.053-21.516 40.816-45.296z" fill="#fcb143"/><path d="m490.703 377.644c-1.029-19.788-15.248-35.751-33.693-39.844l1.695 32.585c.309 5.944-3.059 11.226-8.113 13.645l.015.825c.284 15.089-9.33 30.031-21.039 38.037 3.145.552 6.398.773 9.722.6l10.596-.551c23.779-1.237 42.054-21.517 40.817-45.297z" fill="#fa9801"/></g></g></g></g><g><path d="m356.221 423.551c10.349 0 18.739-8.39 18.739-18.739 0-10.349-8.39-18.739-18.739-18.739l-97.651 12.09c-21.67 2.455-42.81 8.346-62.628 17.45l-3.579 1.644c-3.216 1.477-2.162 6.293 1.377 6.293h162.481z" fill="#fff0dc"/></g></g></g><g><g><g><g><g><g><path d="m498.303 448.656h-484.606c-7.565 0-13.697-6.132-13.697-13.697 0-7.564 6.132-13.697 13.697-13.697h484.607c7.564 0 13.697 6.132 13.697 13.697-.001 7.565-6.133 13.697-13.698 13.697z" fill="#d0f0f3"/></g></g></g></g></g></g><path d="m498.303 421.263h-27.512v27.393h27.512c7.564 0 13.697-6.132 13.697-13.696 0-7.565-6.132-13.697-13.697-13.697z" fill="#a5e4ef"/></g></g></svg>