<?xml version="1.0" encoding="iso-8859-1"?>
<!-- Generator: Adobe Illustrator 19.0.0, SVG Export Plug-In . SVG Version: 6.00 Build 0)  -->
<svg version="1.1" id="Layer_1" xmlns="http://www.w3.org/2000/svg" xmlns:xlink="http://www.w3.org/1999/xlink" x="0px" y="0px"
	 viewBox="0 0 512.001 512.001" style="enable-background:new 0 0 512.001 512.001;" xml:space="preserve">
<path id="SVGCleanerId_0" style="fill:#FCCC9A;" d="M430.576,346.682l-0.803-1.217l1.233,0.902l0.236-19.207
	c0.829-67.896-18.884-133.942-35.566-177.39c-19.648-51.18-40.698-86.546-42.768-89.976c-0.439-2.438-3.985-18.726-21.115-25.789
	C312.664,21.336,272.004,0,240.274,0c-13.525,0-24.396,3.815-32.315,11.336c-26.781,25.422-31.185,42.605-30.163,52.542
	c0.916,8.946,6.105,13.966,8.711,15.955l-0.422,1.698c-1.226,5.012,0.031,15.329,22.184,28.125c9.968,5.76,19.636,8.56,29.562,8.56
	c13.469,0,24.729-5.379,33.869-9.744c1.47-0.703,2.9-1.384,4.289-2.02c3.348-1.536,6.514-1.674,9.323-0.363
	c5.552,2.589,9.064,10.314,10.254,14.354c-1.281,7.188-19.375,111.317-4.92,167.957l0.043,0.174
	c-14.501-6.599-29.77-9.944-45.43-9.944c-9.877,0-20.062,1.339-30.268,3.979c-23.968,6.201-40.894,17.851-44.749,20.666
	c-9.054-4.332-19.55-6.529-31.215-6.529c-6.61,0-13.611,0.709-20.808,2.107l-9.359,1.816l1.465,9.425
	c5.791,37.161,24.964,129.746,77.795,186.744l4.418,4.764l6.125-2.154c13.741-4.834,26.167-11.24,36.928-19.043l16.287-11.806
	c1.876,0.088,4.587,0.176,7.954,0.176c26.082,0,89.154-5.247,114.67-53.607c2.719,0.563,8.981,1.656,16.609,1.656
	c22.519,0,38.276-9.536,44.369-26.851C442.188,370.909,436.516,355.909,430.576,346.682z"/>
<g>
	<path id="SVGCleanerId_0_1_" style="fill:#FCCC9A;" d="M430.576,346.682l-0.803-1.217l1.233,0.902l0.236-19.207
		c0.829-67.896-18.884-133.942-35.566-177.39c-19.648-51.18-40.698-86.546-42.768-89.976c-0.439-2.438-3.985-18.726-21.115-25.789
		C312.664,21.336,272.004,0,240.274,0c-13.525,0-24.396,3.815-32.315,11.336c-26.781,25.422-31.185,42.605-30.163,52.542
		c0.916,8.946,6.105,13.966,8.711,15.955l-0.422,1.698c-1.226,5.012,0.031,15.329,22.184,28.125c9.968,5.76,19.636,8.56,29.562,8.56
		c13.469,0,24.729-5.379,33.869-9.744c1.47-0.703,2.9-1.384,4.289-2.02c3.348-1.536,6.514-1.674,9.323-0.363
		c5.552,2.589,9.064,10.314,10.254,14.354c-1.281,7.188-19.375,111.317-4.92,167.957l0.043,0.174
		c-14.501-6.599-29.77-9.944-45.43-9.944c-9.877,0-20.062,1.339-30.268,3.979c-23.968,6.201-40.894,17.851-44.749,20.666
		c-9.054-4.332-19.55-6.529-31.215-6.529c-6.61,0-13.611,0.709-20.808,2.107l-9.359,1.816l1.465,9.425
		c5.791,37.161,24.964,129.746,77.795,186.744l4.418,4.764l6.125-2.154c13.741-4.834,26.167-11.24,36.928-19.043l16.287-11.806
		c1.876,0.088,4.587,0.176,7.954,0.176c26.082,0,89.154-5.247,114.67-53.607c2.719,0.563,8.981,1.656,16.609,1.656
		c22.519,0,38.276-9.536,44.369-26.851C442.188,370.909,436.516,355.909,430.576,346.682z"/>
</g>
<g style="opacity:0.19;">
	<path style="fill:#202121;" d="M177.796,63.878c0.916,8.946,6.105,13.966,8.711,15.955l-0.422,1.698
		c-1.226,5.012,0.031,15.329,22.184,28.125c9.968,5.76,19.636,8.56,29.562,8.56c13.469,0,24.729-5.379,33.869-9.744
		c1.47-0.703,2.9-1.384,4.289-2.02c0.081-0.038,0.16-0.065,0.241-0.098c-4.389,1.001-8.576,1.491-12.692,1.491
		c-10.47,0-20.942-3.11-32.023-9.515c-14.74-8.515-19.651-14.651-21.16-17.11c1.658-3.822,2.089-7.959,1.198-11.967
		c-1.271-5.686-4.666-10.303-9.591-13.062c-0.797-0.613-3.445-2.973-3.93-7.691c-0.439-4.288,0.428-19.13,25.157-46.035
		c-5.888,1.887-10.986,4.841-15.228,8.869C181.179,36.758,176.775,53.941,177.796,63.878z"/>
</g>
<g style="opacity:0.19;">
	<path style="fill:#202121;" d="M223.862,407.23c-21.916,0-37.971-3.516-39.479-3.858c-4.443-1.01-7.228-5.43-6.218-9.871
		c1.009-4.441,5.425-7.218,9.864-6.219l0,0c0.78,0.176,78.53,17.04,123.488-27.324c3.243-3.198,8.465-3.163,11.666,0.08
		c3.198,3.241,3.163,8.465-0.08,11.663C293.57,400.843,253.397,407.23,223.862,407.23z"/>
</g>
<g style="opacity:0.19;">
	<path style="fill:#202121;" d="M366.148,306.237c-0.489,0-0.986-0.042-1.484-0.135c-4.484-0.814-7.457-5.108-6.64-9.591
		c13.187-72.531-11.095-134.459-11.342-135.075c-1.693-4.229,0.365-9.031,4.595-10.723c4.231-1.692,9.031,0.368,10.723,4.598
		c1.079,2.698,26.285,66.998,12.256,144.153C373.531,303.445,370.058,306.237,366.148,306.237z"/>
</g>
<g>
	<path style="opacity:0.19;fill:#202121;enable-background:new    ;" d="M297.473,306.591l0.007,0.002
		c2.139,0.554,4.065,1.109,5.767,1.636c3.289,0.519,6.96,0.253,8.029-3.097c2.063-6.462-20.586-16.556-20.586-16.556
		c-14.501-6.599-29.77-9.944-45.43-9.944c-9.877,0-20.062,1.339-30.268,3.979c-23.968,6.201-40.894,17.851-44.749,20.666
		c-9.054-4.332-19.55-6.529-31.215-6.529c-6.61,0-13.612,0.709-20.808,2.107l-8.301,1.613l0.407,2.612
		c1.238,7.933,3.086,18.403,5.74,30.504c1.424,0.291,2.917,0.179,4.305-0.354c6.84-2.63,14.075-3.963,21.5-3.963
		c15.88,0,27.57,6.122,27.831,6.259c1.153,0.625,2.415,0.931,3.67,0.931c1.845,0,3.674-0.662,5.117-1.946
		c24.198-21.514,52.487-32.42,84.083-32.42C276.593,302.093,288.75,304.327,297.473,306.591L297.473,306.591z"/>
	<path style="opacity:0.19;fill:#202121;enable-background:new    ;" d="M282.127,105.239L282.127,105.239
		c1.103,0.098,2.167,0.378,3.185,0.851c5.552,2.589,9.064,10.314,10.254,14.354c-1.277,7.154-18.981,111.326-4.877,168.132
		c0,0,0.239,0.107,0.653,0.299c0.01,0.003,0.021,0.009,0.029,0.013c0.111,0.051,0.23,0.11,0.369,0.171
		c0.029,0.015,0.053,0.026,0.085,0.041c0.036,0.017,0.072,0.037,0.11,0.054c0.637,0.3,1.484,0.707,2.476,1.209
		c0.011,0.005,0.023,0.011,0.034,0.016c0.368,0.186,0.755,0.384,1.159,0.594c0.017,0.009,0.032,0.015,0.047,0.023
		c0.832,0.431,1.726,0.907,2.65,1.42c0.02,0.013,0.037,0.022,0.055,0.031c5.19,2.882,11.334,6.901,12.741,10.411
		c0.002,0,0.003,0.002,0.005,0.004c-0.002,0-0.002,0-0.003,0c0.023,0.058,0.047,0.116,0.069,0.174
		c0.142-0.024,0.239-0.04,0.239-0.04c-20.066-50.148-2.331-144.426,1.518-172.473C316.775,102.477,282.127,105.239,282.127,105.239z
		"/>
</g>
<path style="fill:#485D6D;" d="M194.427,497.224l-3.42-3.694c-26.063-28.151-46.88-68.227-61.869-119.11
	c-9.718-32.988-14.132-61.017-15.898-74.784l-0.248-1.92c-0.563-4.392-4.3-7.683-8.726-7.683H82.287c-4.86,0-8.8,3.94-8.8,8.8
	v204.368c0,4.858,3.94,8.8,8.8,8.8H187.97c3.496,0,6.662-2.071,8.061-5.276C197.433,503.518,196.804,499.789,194.427,497.224z"/>
<path style="opacity:0.19;fill:#202121;enable-background:new    ;" d="M89.823,384.157c-8.855-30.053-13.762-56.414-16.336-73.433
	v192.478c0,4.858,3.94,8.8,8.8,8.8h72.066C127.37,480.924,105.674,437.962,89.823,384.157z"/>
<g>
</g>
<g>
</g>
<g>
</g>
<g>
</g>
<g>
</g>
<g>
</g>
<g>
</g>
<g>
</g>
<g>
</g>
<g>
</g>
<g>
</g>
<g>
</g>
<g>
</g>
<g>
</g>
<g>
</g>
</svg>
