<svg id="Layer_1_1_" enable-background="new 0 0 256 256" height="512" viewBox="0 0 256 256" width="512" xmlns="http://www.w3.org/2000/svg"><path d="m215.042 197.862 4.948-2.703c1.699-.994 1.85-3.391.291-4.591-.661-.508-1.516-.692-2.327-.501l-12.895 2.515-24.775-27.55c-2.008-1.88-3.147-4.508-3.147-7.259v-43.609c0-4.362-2.302-8.484-6.158-10.524-2.438-1.29-4.829-1.831-6.925-1.436l-3.275 10.916c-3.643 11.311-4.964 23.241-3.884 35.075.233 2.559 6.006 25.824 6.006 25.824 2.134 4.505 32.137 23.866 32.137 23.866 3.218 3.861 7.66 6.504 12.589 7.49l17.245 3.449c2.652-8.619-13.26-11.934-13.26-11.934" fill="#f5d3a6"/><path d="m44.499 197.512s-17.9.994-13.923 10.939l19.223-3.845c3.697-.739 7.142-2.416 10.005-4.87l2.595-2.225s28.957-19.254 31.011-23.59c0 0 5.904-23.542 6.137-26.1 1.08-11.834-.241-23.764-3.884-35.075l-3.57-10.667c-2.095-.395-4.191-.103-6.629 1.187-3.856 2.04-6.158 6.162-6.158 10.524v43.612c0 2.749-1.138 5.375-3.143 7.255l-25.696 27.882-10.639-1.852c-.812-.191-1.666-.007-2.327.501-1.56 1.2-1.408 3.598.291 4.591l4.226 2.006" fill="#f5d3a6"/><path d="m140 96h-24l-23.907 6.08 4.799 50.142 3.108 19.778h56l3.108-19.778 4.946-50.018z" fill="#7f8b4b"/><path d="m116 103h24l23.334 5.834.72-6.63-24.054-6.204h-24l-23.907 6.08.573 6.754z" fill="#727d43"/><path d="m220.309 212.344c-4.797-3.763-10.399-6.367-16.314-7.845l-48.495-13.499h-55l-54.5 15s-16 8-16 15 8 8 20 15c3 1.75 9 2.438 16.578 2.453l113.385 7.47c3.905.049 7.623.077 11.037.077 29 0 36-16 36-24 0-3.429-3.122-6.857-6.691-9.656z" fill="#514654"/><path d="m183.255 221.348 18.156-3.544s-9.643-.161-10.768-1.286-5.625-4.661-14.143-3.696c-8.518.964-30.536-4.661-33.75-2.571s-24.55 5.625-33.228 4.982c-8.679-.643-51.307-8.518-51.307-8.518s2.716 4.571 7.304 5.339l75.464 11.697 21.375-5.75z" fill="#403742"/><path d="m128 21.114c-14.199 0-25.709 13.512-25.709 30.181 0 2.135.192 4.347.551 6.58 2.601-13.435 12.926-23.348 25.158-23.348 12.229 0 22.666 9.151 25.271 22.58.283-1.972.438-3.923.438-5.813 0-16.668-11.51-30.18-25.709-30.18z" fill="#704c0f"/><path d="m116 82.066v22.934c0 6.627 5.373 12 12 12s12-5.373 12-12v-22.934z" fill="#f0c792"/><path d="m113.057 26.743c4.212-3.539 9.368-5.629 14.943-5.629 5.607 0 10.791 2.113 15.016 5.69h.012c.239-1.081.622-2.301.622-3.454 0-8.643-7.006-15.649-15.649-15.649s-15.649 7.006-15.649 15.649c0 1.247.417 2.231.693 3.394h.012z" fill="#704c0f"/><path d="m101 172-.5 19h55l-.5-19z" fill="#f0c792"/><path d="m128 34.527c-12.232 0-22.557 9.912-25.159 23.347 2.445 15.205 12.779 31.426 25.159 31.426 12.589 0 23.058-16.772 25.271-32.193-2.605-13.428-13.042-22.58-25.271-22.58z" fill="#f5d3a6"/><g fill="#5e400d"><path d="m117.954 23.506c-.259.129-.514.269-.769.408-2.95 5.938-3.46 11.832-3.398 15.575.164-.126.328-.251.494-.372-.023-3.83.578-9.737 3.673-15.611z"/><path d="m120.057 22.589c-.187.071-.374.146-.559.222-1.18 5.458-.837 10.389-.345 13.529.157-.067.316-.129.475-.192-.485-3.159-.809-8.103.429-13.559z"/><path d="m138.284 23.632c2.987 4.757 6.463 11.577 6.888 18.047.143.14.29.273.43.416.055-.049.093-.113.089-.192-.338-6.319-3.588-12.979-6.536-17.808-.287-.162-.579-.313-.871-.463z"/><path d="m138.813 37.092c.196.098.382.216.576.32-.015-.076-.028-.149-.043-.225-1.079-5.43-4.99-11.98-7.468-15.73-.22-.039-.443-.067-.665-.099 2.406 3.598 6.445 10.232 7.6 15.734z"/><path d="m143.016 26.804h.012c.145-.658.336-1.368.469-2.083-4.309-3.828-9.676-6.101-15.497-6.101-5.814 0-11.176 2.268-15.483 6.089.147.677.359 1.325.527 2.035h.012c4.212-3.539 9.368-5.629 14.943-5.629 5.608-.001 10.792 2.112 15.017 5.689z"/></g><path d="m179.374 222.497-88.374 14.503-14.783 4.668c-2.386.753-3.8 3.206-3.257 5.648.576 2.591 3.136 4.23 5.73 3.67l32.31-6.986s39.7 1.557 68.964 1.923l1.661.02s4.626-6.318 4.626-12.568-6.877-10.878-6.877-10.878z" fill="#f5d3a6"/><path d="m76.587 241.551c26.188-2.382 54.641-6.931 66.844-8.367 11.372-1.338 26.799-4.705 39.274-7.707-1.682-1.866-3.331-2.98-3.331-2.98l-88.374 14.503z" fill="#f0c792"/><path d="m181.67 214.855-19.67-.855-14.059-1.757c-1.225-.153-2.452.268-3.325 1.141l-5.129 5.129c-.931.931-2.262 1.345-3.557 1.105l-51.93-9.618-18.482 2.053c-.009.002-3.518 5.947-3.518 12.947s5.305 13.451 5.305 13.451c22.734.046 58.945-5.951 71.695-7.451 13.941-1.64 35.951-7.315 43.422-9.304 1.524-.406 2.578-1.785 2.578-3.362 0-1.865-1.468-3.398-3.33-3.479z" fill="#f5d3a6"/></svg>